<svg width="42" height="42" viewBox="0 0 42 42" fill="none" xmlns="http://www.w3.org/2000/svg">
<path d="M37 0.5H5C2.51472 0.5 0.5 2.51472 0.5 5V37C0.5 39.4853 2.51472 41.5 5 41.5H37C39.4853 41.5 41.5 39.4853 41.5 37V5C41.5 2.51472 39.4853 0.5 37 0.5Z" fill="white" stroke="#EAC9F8"/>
<path d="M10.4908 12.5065H13.0245V14.4294H11.7426C10.4606 14.4294 10.4606 15.0704 10.4606 15.7114V21.0135C10.4606 21.989 11.3858 22.1203 11.3858 22.1203H13.0245V24.0432H10.4908C9.4127 24.0432 8.53845 23.1697 8.53845 22.0916V14.4581C8.53845 13.3807 9.41198 12.5065 10.4908 12.5065Z" fill="#FFAC33"/>
<path d="M12.3835 12.5065H23.2786V25.8111C23.2786 26.6006 22.6326 27.2466 21.843 27.2466H13.8191C13.0295 27.2466 12.3835 26.6006 12.3835 25.8111V12.5065Z" fill="#FFAC33"/>
<path d="M14.6266 25.3237C14.9804 25.3237 15.2676 25.0373 15.2676 24.6828V17.6335C15.2676 17.2797 14.9812 16.9926 14.6266 16.9926C14.2727 16.9926 13.9856 17.279 13.9856 17.6335V24.6828C13.9856 25.0373 14.2727 25.3237 14.6266 25.3237ZM17.8307 25.3237C18.1846 25.3237 18.4717 25.0373 18.4717 24.6828V17.6335C18.4717 17.2797 18.1853 16.9926 17.8307 16.9926C17.4768 16.9926 17.1897 17.279 17.1897 17.6335V24.6828C17.1905 25.0373 17.4768 25.3237 17.8307 25.3237ZM12.3835 14.7395V12.5065H23.2786V16.0078C23.069 16.0846 22.845 16.1334 22.6089 16.1334C21.7921 16.1334 21.0937 15.6302 20.803 14.9175C20.6322 15.0654 20.4118 15.1572 20.1692 15.1572C19.839 15.1572 19.5483 14.9921 19.3718 14.7409C19.0251 15.2836 18.4214 15.6453 17.7295 15.6453C17.095 15.6453 16.5359 15.3374 16.1798 14.868C16.0018 15.3223 15.5626 15.6453 15.0458 15.6453C14.5828 15.6453 14.1852 15.384 13.9777 15.0043C13.7839 15.0991 13.5686 15.1572 13.3375 15.1572C12.7044 15.1572 12.3835 14.7395 12.3835 14.7395Z" fill="#F4900C"/>
<path d="M14.3065 9.3024H22.6376C23.9196 9.3024 24.5605 9.94337 24.5605 11.2253V13.2063C24.5605 14.2844 23.6863 15.158 22.6089 15.158C21.7921 15.158 21.0937 14.6548 20.803 13.9428C20.6322 14.0899 20.4118 14.1825 20.1692 14.1825C19.839 14.1825 19.5483 14.0174 19.3718 13.7662C19.0251 14.3081 18.4214 14.6699 17.7295 14.6699C17.095 14.6699 16.5359 14.362 16.1798 13.8925C16.0018 14.3469 15.5626 14.6699 15.0458 14.6699C14.6007 14.6699 14.2203 14.4258 14.0071 14.0691C13.8342 14.2335 13.6023 14.3361 13.3446 14.3361C12.8135 14.3361 12.3835 13.9055 12.3835 13.375V11.2253C12.3835 9.94337 13.0245 9.3024 14.3065 9.3024Z" fill="#E1E8ED"/>
<path d="M30.4269 13.2602C30.2431 13.2602 30.0594 13.1899 29.9194 13.0499C29.6388 12.7692 29.6388 12.3149 29.9194 12.0342L32.4689 9.48615C32.7496 9.20622 33.2032 9.20622 33.4839 9.48615C33.7645 9.76608 33.7645 10.2212 33.4839 10.5018L30.9344 13.0499C30.7944 13.1906 30.6106 13.2602 30.4269 13.2602ZM27.4381 12.0421C27.3599 12.0421 27.2795 12.0285 27.2012 12.0012C26.8273 11.8706 26.6299 11.4615 26.7605 11.0868L27.4568 9.0964C27.5881 8.72245 27.9965 8.52506 28.3712 8.65569C28.7452 8.78633 28.9425 9.19546 28.8119 9.57013L28.1157 11.5605C28.0123 11.857 27.7345 12.0421 27.4381 12.0421ZM31.8474 16.1865C31.5516 16.1865 31.2746 16.0021 31.1705 15.7078C31.0384 15.3338 31.2351 14.924 31.6083 14.7919L33.3985 14.1596C33.7731 14.0268 34.1823 14.2242 34.3143 14.5974C34.4464 14.9714 34.2497 15.3812 33.8765 15.5133L32.0864 16.1456C32.0067 16.1736 31.9263 16.1865 31.8474 16.1865Z" fill="#FA743E"/>
<path d="M32.4259 19.6842H29.8922V21.6071H31.1741C32.456 21.6071 32.456 22.2481 32.456 22.889V28.1912C32.456 29.1667 31.5308 29.298 31.5308 29.298H29.8922V31.2209H32.4259C33.504 31.2209 34.3782 30.3474 34.3782 29.2693V21.6358C34.3782 20.5584 33.5047 19.6842 32.4259 19.6842Z" fill="#FFAC33"/>
<path d="M30.5331 19.6842H19.6381V32.9888C19.6381 33.7783 20.2841 34.4243 21.0736 34.4243H29.0976C29.8871 34.4243 30.5331 33.7783 30.5331 32.9888V19.6842Z" fill="#FFCC4D"/>
<path d="M21.8811 32.5014C21.5273 32.5014 21.2402 32.2151 21.2402 31.8605V24.8113C21.2402 24.4574 21.5273 24.1703 21.8811 24.1703C22.235 24.1703 22.5221 24.4567 22.5221 24.8113V31.8605C22.5221 32.2151 22.235 32.5014 21.8811 32.5014ZM28.2901 32.5014C27.9363 32.5014 27.6491 32.2151 27.6491 31.8605V24.8113C27.6491 24.4574 27.9355 24.1703 28.2901 24.1703C28.644 24.1703 28.9311 24.4567 28.9311 24.8113V31.8605C28.9311 32.2151 28.644 32.5014 28.2901 32.5014ZM25.086 32.5014C24.7321 32.5014 24.445 32.2151 24.445 31.8605V24.8113C24.445 24.4574 24.7314 24.1703 25.086 24.1703C25.4406 24.1703 25.727 24.4567 25.727 24.8113V31.8605C25.7262 32.2151 25.4398 32.5014 25.086 32.5014Z" fill="#F4900C"/>
<path d="M30.5331 21.9172V19.6842H19.6381V23.1855C19.8477 23.2623 20.0716 23.3111 20.3077 23.3111C21.1246 23.3111 21.823 22.8079 22.1137 22.0952C22.2845 22.2431 22.5048 22.3349 22.7474 22.3349C23.0776 22.3349 23.3683 22.1698 23.5449 21.9186C23.8916 22.4613 24.4952 22.823 25.1871 22.823C25.8217 22.823 26.3808 22.5151 26.7368 22.0457C26.9148 22.5 27.3541 22.823 27.8709 22.823C28.3339 22.823 28.7315 22.5617 28.9389 22.182C29.1327 22.2768 29.3481 22.3349 29.5792 22.3349C30.2123 22.3349 30.5331 21.9172 30.5331 21.9172Z" fill="#FFAC33"/>
<path d="M28.6102 16.4801H20.279C18.9971 16.4801 18.3561 17.1211 18.3561 18.403V20.3841C18.3561 21.4621 19.2304 22.3357 20.3078 22.3357C21.1246 22.3357 21.823 21.8325 22.1137 21.1205C22.2845 21.2676 22.5049 21.3602 22.7475 21.3602C23.0776 21.3602 23.3683 21.1951 23.5449 20.9439C23.8916 21.4858 24.4952 21.8476 25.1872 21.8476C25.8217 21.8476 26.3808 21.5397 26.7368 21.0702C26.9148 21.5246 27.3541 21.8476 27.8709 21.8476C28.3159 21.8476 28.6963 21.6035 28.9095 21.2468C29.0818 21.4112 29.3143 21.5138 29.5713 21.5138C30.1025 21.5138 30.5324 21.0832 30.5324 20.5527V18.403C30.5331 17.1211 29.8921 16.4801 28.6102 16.4801Z" fill="#EEEEEE"/>
</svg>
